HIERARCHY
ROOT root
{
	OFFSET	0	13.1	24.9
	CHANNELS 6  Xposition Yposition Zposition Xrotation Yrotation Zrotation
	JOINT spine_1
	{
		OFFSET	0	9.99999	0
		CHANNELS 3  Xrotation Yrotation Zrotation
		JOINT spine_2
		{
			OFFSET	0	112	-10
			CHANNELS 3  Xrotation Yrotation Zrotation
			JOINT spine_3
			{
				OFFSET	0	206.5	19.3
				CHANNELS 3  Xrotation Yrotation Zrotation
				JOINT spine_4
				{
					OFFSET	0	110.4	14.6
					CHANNELS 3  Xrotation Yrotation Zrotation
					JOINT neck_1
					{
						OFFSET	0	71.8	-50.3
						CHANNELS 3  Xrotation Yrotation Zrotation
						JOINT neck_2
						{
							OFFSET	0	86.2	-25.8
							CHANNELS 3  Xrotation Yrotation Zrotation
							JOINT head_ee
							{
								OFFSET	0	179.8	-8.7
								CHANNELS 3  Xrotation Yrotation Zrotation
								End Site
								{
									OFFSET	1	0	0
								}
							}
						}
					}
					JOINT left_clavicle
					{
						OFFSET	-43.2	22.4	-70.8
						CHANNELS 3  Xrotation Yrotation Zrotation
						JOINT left_shoulder
						{
							OFFSET	-93.9	-5.79999	48.7
							CHANNELS 3  Xrotation Yrotation Zrotation
							JOINT left_elbow
							{
								OFFSET	-291.4	-30.8	15.2
								CHANNELS 3  Xrotation Yrotation Zrotation
								JOINT left_lowarm_twist
								{
									OFFSET	-110.7	-3.89999	13.6
									CHANNELS 3  Xrotation Yrotation Zrotation
									JOINT left_hand
									{
										OFFSET	-110.7	-3.89999	13.6
										CHANNELS 3  Xrotation Yrotation Zrotation
										JOINT left_ee
										{
											OFFSET	-80.8	-5.10001	12.1
											CHANNELS 3  Xrotation Yrotation Zrotation
											End Site
											{
												OFFSET	1	0	0
											}
										}
									}
								}
							}
						}
					}
					JOINT right_clavicle
					{
						OFFSET	43.2	22.4	-70.8
						CHANNELS 3  Xrotation Yrotation Zrotation
						JOINT right_shoulder
						{
							OFFSET	93.9	-5.79999	48.7
							CHANNELS 3  Xrotation Yrotation Zrotation
							JOINT right_elbow
							{
								OFFSET	291.4	-30.8	15.2
								CHANNELS 3  Xrotation Yrotation Zrotation
								JOINT right_lowarm_twist
								{
									OFFSET	110.7	-3.89999	13.6
									CHANNELS 3  Xrotation Yrotation Zrotation
									JOINT right_hand
									{
										OFFSET	110.7	-3.89999	13.6
										CHANNELS 3  Xrotation Yrotation Zrotation
										JOINT right_ee
										{
											OFFSET	80.8	-5.10001	12.1
											CHANNELS 3  Xrotation Yrotation Zrotation
											End Site
											{
												OFFSET	1	0	0
											}
										}
									}
								}
							}
						}
					}
				}
			}
		}
	}
	JOINT left_hip
	{
		OFFSET	-82.8	-127.5	0.300001
		CHANNELS 3  Xrotation Yrotation Zrotation
		JOINT left_knee
		{
			OFFSET	-28.2	-396.7	2.2
			CHANNELS 3  Xrotation Yrotation Zrotation
			JOINT left_ankle
			{
				OFFSET	-11.7	-411.3	35.4
				CHANNELS 3  Xrotation Yrotation Zrotation
				JOINT left_toes
				{
					OFFSET	0	-60	-88.6
					CHANNELS 3  Xrotation Yrotation Zrotation
					JOINT left_foot_ee
					{
						OFFSET	-22.5	-16.5	-42.2
						CHANNELS 3  Xrotation Yrotation Zrotation
						End Site
						{
							OFFSET	1	0	0
						}
					}
				}
			}
		}
	}
	JOINT right_hip
	{
		OFFSET	82.8	-127.5	0.300001
		CHANNELS 3  Xrotation Yrotation Zrotation
		JOINT right_knee
		{
			OFFSET	28.2	-396.7	2.2
			CHANNELS 3  Xrotation Yrotation Zrotation
			JOINT right_ankle
			{
				OFFSET	11.7	-411.3	35.4
				CHANNELS 3  Xrotation Yrotation Zrotation
				JOINT right_toes
				{
					OFFSET	0	-60	-88.6
					CHANNELS 3  Xrotation Yrotation Zrotation
					JOINT right_foot_ee
					{
						OFFSET	22.5	-16.5	-42.2
						CHANNELS 3  Xrotation Yrotation Zrotation
						End Site
						{
							OFFSET	1	0	0
						}
					}
				}
			}
		}
	}
}
MOTION
Frames: 14
Frame Time: 0.02
418.999134732 707.661 -1180.9027986 172.517359562 -27.3831686455 -179.21116952 -1.96712 -0.143167 -1.67221 -1.96557 -0.0364847 -1.67793 -1.963 0.373357 -1.63628 -1.96672 0.110289 -1.6747 -15.7323 11.6391 3.9775 -16.0766 20.0038 7.82546 -0.0 0.0 -0.0 10.9297 -12.7753 21.8408 3.06504 12.7533 62.9174 0.438104 -12.2449 0.0469935 7.59643 0.205051 -0.947984 4.23277 0.738212 29.9315 -0.0 0.0 -0.0 12.7019 26.3726 -24.9458 -17.6955 -2.62886 -55.9577 0.857356 23.0112 -0.174521 2.10065 -0.0692631 0.259347 2.09912 20.3141 -5.26904 0.0 0.0 0.0 -9.33004 -18.6765 6.77501 -2.85312 0.106913 0.424764 33.1508 22.5342 -4.40082 -0.4777 0.0 0.0 -0.0 0.0 -0.0 2.343 1.68039 -0.0282242 -15.6413 -0.322078 -2.37128 6.72781 -16.3612 0.976764 -1.24953 0.0 0.0 0.0 0.0 0.0 
418.344200975 707.661 -1180.16029156 172.619001891 -25.827573175 -178.984230885 -1.96712 -0.143167 -1.67221 -1.96557 -0.0364847 -1.67793 -1.963 0.373357 -1.63628 -1.96672 0.110289 -1.6747 -15.7323 11.6391 3.9775 -16.0766 20.0038 7.82546 -0.0 0.0 -0.0 10.9297 -12.7753 21.8408 3.06504 12.7533 62.9174 0.438104 -12.2449 0.0469935 7.59643 0.205051 -0.947984 4.23277 0.738212 29.9315 -0.0 0.0 -0.0 12.7019 26.3726 -24.9458 -17.6955 -2.62886 -55.9577 0.857356 23.0112 -0.174521 2.10065 -0.0692631 0.259347 2.09912 20.3141 -5.26904 0.0 0.0 0.0 -9.33004 -18.6765 6.77501 -2.85312 0.106913 0.424764 33.1508 22.5342 -4.40082 -0.4777 0.0 0.0 -0.0 0.0 -0.0 2.343 1.68039 -0.0282242 -15.6413 -0.322078 -2.37128 6.72781 -16.3612 0.976764 -1.24953 0.0 0.0 0.0 0.0 0.0 
429.334934404 706.051 -1155.56097991 172.006756504 -18.3361766883 -178.618741073 -2.00918 -0.191148 -1.0054 -2.00862 -0.126788 -1.01553 -2.00575 0.125118 -1.01573 -2.00719 -0.0368603 -1.02275 -12.7257 13.1312 -1.23171 -13.1616 25.7373 2.82917 -0.0 0.0 -0.0 11.1308 -13.9528 22.26 9.37876 7.23945 62.9033 0.609756 -16.8074 0.0900818 10.0188 0.243807 -1.25496 4.9082 10.8335 39.0667 -0.0 0.0 -0.0 12.7034 24.7109 -25.1367 -21.0013 -1.58154 -58.8976 0.947171 25.1356 -0.211163 1.6416 -0.0549409 0.202462 2.10943 21.1913 -4.92429 0.0 0.0 0.0 -11.6769 -21.3681 8.1043 -2.87032 0.107494 0.42734 37.7659 19.9379 -4.81541 1.10465 -0.0 -0.0 -0.0 0.0 -0.0 5.53077 0.980328 -1.91251 -22.9798 -0.248363 -3.4941 15.7742 -23.2733 2.27964 -0.695399 0.0 0.0 0.0 0.0 0.0 
437.13266808 705.182 -1146.23383963 170.463765378 -20.469150996 -178.936539516 -2.39907 -0.197034 -0.715758 -2.3988 -0.151091 -0.726845 -2.3965 0.0360847 -0.741504 -2.39726 -0.0814717 -0.737898 -12.8238 11.4828 -2.32281 -13.1671 23.2881 1.27473 -0.0 0.0 -0.0 9.57039 -10.9201 18.8786 9.10894 1.92883 63.6123 0.957614 -25.378 0.215619 10.6489 0.251757 -1.33505 5.20664 15.5166 42.9529 -0.0 0.0 -0.0 12.5072 23.0302 -24.8525 -22.0698 -2.49497 -61.3606 0.936939 24.8971 -0.206836 2.07403 -0.0684447 0.256045 1.87037 20.7076 -3.57154 0.0 0.0 0.0 -13.283 -21.9966 8.95575 -3.13855 0.116441 0.467533 39.0467 19.5011 -4.92828 1.56126 -0.0 -0.0 -0.0 0.0 -0.0 8.35799 0.207377 -3.1947 -22.7071 -0.253671 -3.4526 15.3995 -27.0636 2.27593 -0.742467 0.0 0.0 0.0 0.0 0.0 
450.337120729 706.191 -1137.37916378 170.207164649 -22.5053541539 -179.837759786 -2.35387 -0.264041 -0.609934 -2.35369 -0.224695 -0.625499 -2.35093 -0.0611223 -0.661815 -2.3515 -0.164874 -0.643857 -12.9136 9.90644 -2.39811 -13.1697 20.3406 0.713679 -0.0 0.0 -0.0 8.71684 -9.19927 17.0678 10.6528 -1.91719 66.0189 1.28649 -32.5074 0.375082 10.9309 0.25503 -1.37093 5.34914 17.9535 44.7719 -0.0 0.0 -0.0 12.1997 22.3084 -24.2098 -22.3623 -3.17194 -61.638 0.874365 23.4189 -0.181226 2.69764 -0.0872058 0.333491 1.71088 20.418 -2.65118 0.0 0.0 0.0 -14.8812 -22.1497 9.82651 -3.28258 0.121168 0.489132 39.4653 19.8903 -4.97627 1.85946 -0.0 -0.0 -0.0 0.0 -0.0 10.2735 0.0023991 -3.23725 -21.3657 -0.276908 -3.24807 14.046 -27.9561 2.09762 -1.03173 0.0 0.0 0.0 0.0 0.0 
461.964472907 705.161 -1132.28019476 169.282535363 -25.9009736768 178.522567271 -2.47474 -0.278557 -0.347342 -2.47471 -0.255891 -0.364363 -2.47296 -0.155747 -0.417112 -2.47314 -0.219667 -0.387281 -13.1099 8.79612 -2.32154 -13.3172 18.1843 0.468099 -0.0 0.0 -0.0 8.13206 -7.96794 15.8461 11.4518 -4.58302 68.2455 1.57102 -37.8887 0.539271 11.1738 0.257709 -1.40184 5.46071 19.4342 46.0687 -0.0 0.0 -0.0 12.2329 21.6988 -24.3383 -22.7245 -3.84365 -62.8426 0.81787 22.0551 -0.159389 3.17501 -0.100997 0.392909 1.58885 20.163 -1.96091 0.0 0.0 0.0 -16.0835 -21.9141 10.6752 -3.37742 0.12425 0.503361 39.7615 20.3508 -5.01466 2.03502 -0.0 -0.0 -0.0 0.0 -0.0 11.7758 -0.182263 -3.36725 -20.3174 -0.291731 -3.0879 13.0882 -28.3872 1.96645 -1.19638 0.0 0.0 0.0 0.0 0.0 
470.422003655 703.486 -1131.54848195 169.014110233 -28.5565069993 177.275076643 -2.53498 -0.27312 -0.161351 -2.535 -0.2623 -0.178403 -2.53417 -0.208583 -0.239002 -2.53417 -0.243711 -0.203061 -13.2582 7.89158 -2.22651 -13.4283 16.4057 0.295157 -0.0 0.0 -0.0 7.6042 -7.81515 14.7352 12.0299 -6.24138 69.0179 1.80764 -41.8389 0.691023 11.6637 0.26271 -1.46422 5.54925 20.1336 47.0076 -0.0 0.0 -0.0 12.1511 21.3145 -24.1817 -22.9384 -4.31856 -63.5448 0.778805 21.0964 -0.145023 3.47792 -0.10949 0.430671 1.49854 19.9866 -1.44366 0.0 0.0 0.0 -16.824 -21.6018 11.2005 -3.01052 0.112194 0.448344 40.0513 21.4768 -5.06974 2.24406 -0.0 -0.0 -0.0 0.0 -0.0 12.5748 -0.164236 -3.30645 -19.6922 -0.299173 -2.99227 12.3916 -28.0534 1.86204 -1.3089 0.0 0.0 0.0 0.0 0.0 
474.743820348 704.4 -1132.35619309 169.30545265 -32.5426070706 176.847416292 -2.5757 -0.282194 -0.0391975 -2.57575 -0.279128 -0.0570749 -2.5755 -0.255491 -0.126073 -2.57542 -0.272195 -0.0841409 -13.3457 7.24233 -2.21396 -13.4906 15.1628 0.114305 -0.0 0.0 -0.0 7.26285 -8.31613 14.0029 12.4612 -7.42438 69.5506 1.99452 -44.6499 0.819096 12.0093 0.265917 -1.50824 5.61716 20.3886 47.688 -0.0 0.0 -0.0 12.1903 21.2209 -24.2792 -23.0174 -4.64098 -64.0505 0.732433 19.9421 -0.128768 3.77644 -0.117665 0.467926 1.4271 19.7478 -1.07868 0.0 0.0 0.0 -17.3637 -21.3883 11.6038 -2.74276 0.103172 0.40824 40.0489 22.4304 -5.09513 2.3836 -0.0 -0.0 -0.0 0.0 -0.0 13.9482 -0.228204 -3.92143 -18.6655 -0.309132 -2.83505 11.8838 -27.6034 1.78358 -1.38919 0.0 0.0 0.0 0.0 0.0 
483.304932195 701.93 -1132.55135468 169.224262879 -35.0333283264 175.992198176 -2.63455 -0.23541 0.0161185 -2.63458 -0.235959 0.00110597 -2.63462 -0.228447 -0.0590749 -2.63455 -0.23491 -0.0222544 -13.4047 6.79309 -2.19034 -13.533 14.2931 0.00284864 -0.0 0.0 -0.0 7.01154 -8.66617 13.4628 12.5841 -8.24488 69.7658 2.133 -46.5713 0.91807 12.2665 0.268132 -1.54102 5.66369 20.549 48.1563 -0.0 0.0 -0.0 12.2961 21.342 -24.5132 -23.0227 -4.8479 -64.42 0.701149 19.1536 -0.1183 3.98588 -0.123284 0.49409 1.37641 19.5694 -0.823224 0.0 0.0 0.0 -17.713 -21.2404 11.8507 -2.38157 0.0907067 0.35421 40.034 23.1239 -5.11341 2.47484 -0.0 -0.0 -0.0 0.0 -0.0 14.9071 -0.242111 -4.27942 -17.7913 -0.31539 -2.70107 11.4983 -27.2623 1.72421 -1.44643 0.0 0.0 0.0 0.0 0.0 
500.30812987 695.138 -1130.24406043 170.026678676 -38.6530463361 175.547095446 -2.77272 -0.133248 0.20154 -2.77271 -0.145802 0.192653 -2.77322 -0.190453 0.148665 -2.77321 -0.164584 0.176877 -12.9251 6.99622 -0.849126 -13.0457 13.8381 1.2831 -0.0 0.0 -0.0 6.90896 -12.4186 13.082 14.4786 -6.60434 67.3471 2.22029 -47.7165 0.98206 13.2984 0.275536 -1.6726 5.68355 19.4087 48.1681 -0.0 0.0 -0.0 13.1972 21.2555 -26.6093 -23.3618 -5.54341 -64.8367 0.586858 16.2099 -0.0835748 4.18936 -0.128653 0.519529 1.19646 18.3713 -0.163717 0.0 0.0 0.0 -17.9449 -22.6189 12.1414 0.0263039 -0.00108411 -0.00389099 39.5704 24.2354 -5.10237 2.52226 -0.0 -0.0 -0.0 0.0 -0.0 20.2741 0.229422 -6.47394 -11.6334 -0.30151 -1.75681 10.5592 -23.7061 1.55712 -1.55302 0.0 0.0 0.0 0.0 0.0 
501.29596065 695.138 -1131.71289613 169.917932121 -39.4116141217 175.37441962 -2.77272 -0.133248 0.20154 -2.77271 -0.145802 0.192653 -2.77322 -0.190453 0.148665 -2.77321 -0.164584 0.176877 -12.9251 6.99622 -0.849126 -13.0457 13.8381 1.2831 -0.0 0.0 -0.0 6.90896 -12.4186 13.082 14.4786 -6.60434 67.3471 2.22029 -47.7165 0.98206 13.2984 0.275536 -1.6726 5.68355 19.4087 48.1681 -0.0 0.0 -0.0 13.1972 21.2555 -26.6093 -23.3618 -5.54341 -64.8367 0.586858 16.2099 -0.0835748 4.18936 -0.128653 0.519529 1.19646 18.3713 -0.163717 0.0 0.0 0.0 -17.9449 -22.6189 12.1414 0.0263039 -0.00108411 -0.00389099 39.5704 24.2354 -5.10237 2.52226 -0.0 -0.0 -0.0 0.0 -0.0 20.2741 0.229422 -6.47394 -11.6334 -0.30151 -1.75681 10.5592 -23.7061 1.55712 -1.55302 0.0 0.0 0.0 0.0 0.0 
501.969620748 695.138 -1132.73963639 169.840034455 -39.9377153138 175.252406043 -2.77272 -0.133248 0.20154 -2.77271 -0.145802 0.192653 -2.77322 -0.190453 0.148665 -2.77321 -0.164584 0.176877 -12.9251 6.99622 -0.849126 -13.0457 13.8381 1.2831 -0.0 0.0 -0.0 6.90896 -12.4186 13.082 14.4786 -6.60434 67.3471 2.22029 -47.7165 0.98206 13.2984 0.275536 -1.6726 5.68355 19.4087 48.1681 -0.0 0.0 -0.0 13.1972 21.2555 -26.6093 -23.3618 -5.54341 -64.8367 0.586858 16.2099 -0.0835748 4.18936 -0.128653 0.519529 1.19646 18.3713 -0.163717 0.0 0.0 0.0 -17.9449 -22.6189 12.1414 0.0263039 -0.00108411 -0.00389099 39.5704 24.2354 -5.10237 2.52226 -0.0 -0.0 -0.0 0.0 -0.0 20.2741 0.229422 -6.47394 -11.6334 -0.30151 -1.75681 10.5592 -23.7061 1.55712 -1.55302 0.0 0.0 0.0 0.0 0.0 
526.362422689 688.881 -1122.02348698 170.694232713 -42.2080809155 174.328915647 -2.95812 0.0679189 0.617706 -2.9579 0.0284758 0.620776 -2.95733 -0.134121 0.606783 -2.95784 -0.0366096 0.620349 -12.2604 6.84961 -0.723703 -12.3611 13.4616 1.27795 -0.0 0.0 -0.0 7.74077 -16.0736 14.6722 16.5625 -4.00574 63.1058 2.20155 -47.4748 0.968223 15.0052 0.282578 -1.89048 5.6789 18.0519 47.8761 -0.0 0.0 -0.0 13.2277 22.5761 -26.5656 -23.2965 -5.7595 -65.2378 0.533785 14.8114 -0.0693811 4.45074 -0.135415 0.552232 1.03548 16.7929 0.212406 0.0 0.0 0.0 -18.6706 -23.3663 14.0707 1.70212 -0.0738254 -0.250748 39.3507 24.5572 -5.0911 2.54079 -0.0 -0.0 -0.0 0.0 -0.0 23.1577 1.2712 -7.08357 -7.2751 -0.230459 -1.09198 10.0323 -20.6424 1.46188 -1.50855 0.0 0.0 0.0 0.0 0.0 
583.402746838 681.228 -1101.60117715 173.447784709 -46.1931036675 175.245415661 -3.13752 0.448958 0.822507 -3.13723 0.395712 0.849406 -3.13067 0.158173 0.923608 -3.13173 0.302049 0.887041 -9.16697 7.06733 -0.538925 -9.20699 13.6308 1.14706 -0.0 0.0 -0.0 8.95843 -17.1434 17.276 15.4406 -0.537482 59.5195 1.93793 -43.826 0.779617 15.7812 0.283634 -1.9896 5.70969 15.4598 47.6043 -0.0 0.0 -0.0 13.3707 26.82 -26.4349 -20.4081 -5.38132 -65.6166 0.511715 14.2244 -0.0638486 6.78785 -0.189229 0.845908 0.57956 13.3515 1.77515 0.0 0.0 0.0 -17.9346 -23.5413 14.8007 0.526734 -0.0220481 -0.0778235 39.4411 22.7094 -5.0453 2.61462 -0.0 -0.0 -0.0 0.0 -0.0 26.6393 2.47244 -6.61591 -3.71878 -0.135151 -0.554615 9.39819 -18.814 1.36313 -2.00231 0.0 0.0 0.0 0.0 0.0 
